<?xml version="1.0" encoding="UTF-8"?>
<svg id="Capa_1" data-name="Capa 1" xmlns="http://www.w3.org/2000/svg" viewBox="0 0 30 30">
  <defs>
    <style>
      .cls-1 {
        fill: #fff;
      }
    </style>
  </defs>
  <path class="cls-1" d="M27.52,27.97c-1.38-1.1-2.68-2.25-3.92-3.45s-2.32-2.5-3.24-3.92c-.92-1.41-1.66-2.96-2.21-4.63s-.83-3.49-.83-5.45c0-2.83.58-4.95,1.74-6.37s2.76-2.12,4.8-2.12c1.77,0,3.08.51,3.95,1.53.86,1.02,1.3,2.22,1.3,3.6,0,1.26-.24,2.21-.71,2.86s-1.43,1.29-2.89,1.92c-.98.43-1.67.83-2.06,1.21s-.59.99-.59,1.86c0,.75.19,1.53.56,2.36s.88,1.66,1.53,2.5,1.4,1.7,2.27,2.56,1.79,1.71,2.77,2.53l-2.48,3.01ZM10.2,27.97c-1.38-1.1-2.68-2.25-3.92-3.45-1.24-1.2-2.32-2.5-3.24-3.92-.92-1.41-1.66-2.96-2.21-4.63S0,12.49,0,10.52c0-2.83.58-4.95,1.74-6.37,1.16-1.41,2.76-2.12,4.8-2.12,1.77,0,3.08.51,3.95,1.53.86,1.02,1.3,2.22,1.3,3.6,0,1.26-.24,2.21-.71,2.86s-1.43,1.29-2.89,1.92c-.98.43-1.67.83-2.06,1.21s-.59.99-.59,1.86c0,.75.19,1.53.56,2.36.37.83.88,1.66,1.53,2.5s1.4,1.7,2.27,2.56,1.79,1.71,2.77,2.53l-2.48,3.01Z"/>
</svg>