<?xml version="1.0" encoding="UTF-8"?>
<svg id="Capa_1" data-name="Capa 1" xmlns="http://www.w3.org/2000/svg" viewBox="0 0 30 30">
  <defs>
    <style>
      .cls-1 {
        fill: #fff;
      }
    </style>
  </defs>
  <path class="cls-1" d="M0,24.96c.98-.83,1.91-1.67,2.77-2.53s1.62-1.72,2.27-2.56,1.16-1.68,1.53-2.5.56-1.61.56-2.36c0-.86-.2-1.48-.59-1.86s-1.08-.78-2.06-1.21c-1.45-.63-2.42-1.27-2.89-1.92s-.71-1.6-.71-2.86c0-1.38.43-2.57,1.3-3.6s2.18-1.53,3.95-1.53c2.04,0,3.64.71,4.8,2.12s1.74,3.54,1.74,6.37c0,1.96-.28,3.78-.83,5.45s-1.29,3.21-2.21,4.63c-.92,1.41-2,2.72-3.24,3.92s-2.54,2.35-3.92,3.45l-2.48-3.01ZM17.33,24.96c.98-.83,1.91-1.67,2.77-2.53s1.62-1.72,2.27-2.56,1.16-1.68,1.53-2.5.56-1.61.56-2.36c0-.86-.2-1.48-.59-1.86s-1.08-.78-2.06-1.21c-1.45-.63-2.42-1.27-2.89-1.92s-.71-1.6-.71-2.86c0-1.38.43-2.57,1.3-3.6s2.18-1.53,3.95-1.53c2.04,0,3.64.71,4.8,2.12s1.74,3.54,1.74,6.37c0,1.96-.28,3.78-.83,5.45s-1.29,3.21-2.21,4.63-2,2.72-3.24,3.92c-1.24,1.2-2.54,2.35-3.92,3.45l-2.48-3.01Z"/>
</svg>