<?xml version="1.0" encoding="UTF-8"?>
<svg id="Capa_1" data-name="Capa 1" xmlns="http://www.w3.org/2000/svg" viewBox="0 0 80 60">
  <defs>
    <style>
      .cls-1 {
        fill: #1878b2;
        stroke: #1878b2;
        stroke-linecap: round;
        stroke-linejoin: round;
        stroke-width: 2px;
      }
    </style>
  </defs>
  <path class="cls-1" d="M63.96,33.66h-12.28c-.36,0-.65-.29-.65-.65s.29-.65.65-.65h12.28c7.51,0,13.62-6.11,13.62-13.62v-9.23H12.73v9.23c0,1.97.41,3.87,1.22,5.64.15.33,0,.71-.32.86-.32.15-.71,0-.86-.32-.89-1.94-1.33-4.02-1.33-6.18v-9.88c0-.36.29-.65.65-.65h66.15c.36,0,.65.29.65.65v9.88c0,8.22-6.69,14.92-14.92,14.92"/>
  <path class="cls-1" d="M38.63,33.66h-12.28c-.63,0-1.26-.04-1.85-.11-.36-.05-.61-.37-.56-.72.04-.36.38-.59.72-.56.55.07,1.12.1,1.69.1h12.28c.36,0,.65.29.65.65s-.29.65-.65.65"/>
  <path class="cls-1" d="M76.99,51.49H18.95c-.36,0-.65-.29-.65-.65s.29-.65.65-.65h57.39v-25.63c0-.36.29-.65.65-.65s.65.29.65.65v26.27c0,.36-.29.65-.65.65"/>
  <path class="cls-1" d="M49.8,39.41h-9.29c-1.39,0-2.53-1.13-2.53-2.52v-4.14c0-1.39,1.13-2.52,2.53-2.52h9.29c1.39,0,2.53,1.13,2.53,2.52v4.14c0,1.39-1.13,2.52-2.53,2.52M40.51,31.52c-.68,0-1.23.55-1.23,1.23v4.14c0,.68.55,1.23,1.23,1.23h9.29c.68,0,1.23-.55,1.23-1.23v-4.14c0-.68-.55-1.23-1.23-1.23h-9.29Z"/>
  <path class="cls-1" d="M50.67,9.51h-11.03c-.36,0-.65-.29-.65-.65v-2.26c0-1.68,1.37-3.05,3.05-3.05h6.24c1.68,0,3.04,1.37,3.04,3.05v2.26c0,.36-.29.65-.65.65M40.29,8.22h9.74v-1.61c0-.97-.78-1.75-1.75-1.75h-6.24c-.97,0-1.75.78-1.75,1.75v1.61Z"/>
  <path class="cls-1" d="M18.96,52.51H7.88c-.36,0-.65-.29-.65-.65v-4.96c-3.78-2.21-6.11-6.24-6.11-10.63,0-6.78,5.52-12.3,12.3-12.3s12.3,5.52,12.3,12.3c0,4.39-2.33,8.43-6.11,10.63v4.96c0,.36-.29.65-.65.65M8.52,51.22h9.79v-4.69c0-.24.13-.45.34-.57,3.56-1.93,5.77-5.64,5.77-9.68,0-6.07-4.94-11-11.01-11s-11,4.94-11,11c0,4.04,2.21,7.75,5.77,9.68.21.11.34.33.34.57v4.69Z"/>
  <path class="cls-1" d="M13.42,57.5c-2.43,0-4.41-1.98-4.41-4.42,0-.36.29-.65.65-.65s.65.29.65.65c0,1.72,1.4,3.12,3.12,3.12s3.12-1.4,3.12-3.12c0-.36.29-.65.65-.65s.65.29.65.65c0,2.43-1.98,4.42-4.42,4.42"/>
  <path class="cls-1" d="M13.42,49.38c-.36,0-.65-.29-.65-.65v-9.66c0-.36.29-.65.65-.65s.65.29.65.65v9.66c0,.36-.29.65-.65.65"/>
  <path class="cls-1" d="M14.36,39.73h-1.89c-1.99,0-3.61-1.62-3.61-3.62,0-.36.29-.65.65-.65s.65.29.65.65c0,1.28,1.04,2.32,2.32,2.32h1.89c1.28,0,2.32-1.04,2.32-2.32,0-.36.29-.65.65-.65s.65.29.65.65c0,1.99-1.62,3.62-3.61,3.62"/>
</svg>