<?xml version="1.0" encoding="UTF-8"?>
<svg id="Capa_1" data-name="Capa 1" xmlns="http://www.w3.org/2000/svg" viewBox="0 0 60 60">
  <defs>
    <style>
      .cls-1 {
        fill: #1878b2;
        stroke: #1878b2;
        stroke-linecap: round;
        stroke-linejoin: round;
        stroke-width: 2px;
      }
    </style>
  </defs>
  <path class="cls-1" d="M31.27,57.5l-2.03-7.64c-1.26-.05-2.51-.21-3.74-.5l-3.97,6.84-10.08-5.85,3.97-6.84c-.86-.93-1.63-1.93-2.29-3l-7.64,2.03-2.99-11.27,7.64-2.03c.05-1.26.22-2.51.5-3.74l-6.84-3.97,5.85-10.08,6.84,3.97c.92-.86,1.93-1.63,3-2.29l-2.03-7.64,11.27-2.99,2.03,7.64c1.26.05,2.51.21,3.74.5l3.97-6.84,10.08,5.85-3.97,6.84c.86.92,1.62,1.93,2.29,3l7.64-2.03,2.99,11.27-7.64,2.03c-.05,1.26-.22,2.51-.5,3.74l6.84,3.97-5.85,10.08-6.84-3.96c-.93.86-1.93,1.63-3,2.29l2.03,7.64-11.27,2.99ZM24.87,47.86l.48.12c1.44.37,2.93.57,4.4.59h.49s1.95,7.34,1.95,7.34l8.76-2.33-1.95-7.33.43-.25c1.28-.75,2.46-1.66,3.53-2.7l.35-.34,6.56,3.8,4.55-7.84-6.56-3.81.12-.48c.37-1.44.57-2.92.59-4.41v-.49s7.34-1.95,7.34-1.95l-2.33-8.76-7.33,1.95-.25-.42c-.76-1.28-1.66-2.47-2.7-3.53l-.35-.35,3.81-6.56-7.84-4.55-3.81,6.56-.48-.12c-1.44-.38-2.93-.57-4.4-.59h-.49s-1.95-7.33-1.95-7.33l-8.76,2.33,1.95,7.33-.43.25c-1.28.75-2.47,1.66-3.53,2.7l-.35.34-6.56-3.81-4.55,7.83,6.56,3.81-.12.48c-.37,1.44-.57,2.92-.59,4.41v.49s-7.33,1.95-7.33,1.95l2.33,8.76,7.33-1.95.25.42c.75,1.28,1.66,2.47,2.7,3.53l.34.35-3.81,6.56,7.84,4.55,3.81-6.56ZM30,39.14c-4.04,0-7.75-2.71-8.83-6.79-1.29-4.87,1.62-9.88,6.49-11.18,4.87-1.29,9.89,1.62,11.18,6.49,1.29,4.87-1.62,9.88-6.49,11.18h0c-.78.21-1.57.31-2.34.31M30,22.16c-.66,0-1.34.08-2.01.26-4.18,1.11-6.67,5.41-5.56,9.59,1.11,4.18,5.41,6.67,9.59,5.57,4.18-1.11,6.67-5.42,5.56-9.59-.93-3.51-4.11-5.83-7.58-5.83"/>
</svg>