<?xml version="1.0" encoding="UTF-8"?>
<svg id="Capa_1" data-name="Capa 1" xmlns="http://www.w3.org/2000/svg" viewBox="0 0 40 40">
  <defs>
    <style>
      .cls-1 {
        fill: #fff;
      }
    </style>
  </defs>
  <g>
    <path class="cls-1" d="M20,39.68C4.68,39.68,3.11,18.59,3,16.72h4.42c.16.51,1.08,2.75,5.18,2.75h14.8c4.11,0,5.03-2.25,5.18-2.75h4.42c-.11,1.87-1.68,22.96-17,22.96ZM8.69,22.55c-.07,0-.12.06-.12.12s.03,6.9,3.87,10.75c1.74,1.75,4,2.63,6.72,2.63,10.48,0,12.26-13.23,12.28-13.36,0-.04,0-.07-.03-.1-.02-.03-.06-.04-.09-.04H8.69Z"/>
    <path class="cls-1" d="M36.86,16.85c-.17,2.54-1.96,22.71-16.86,22.71S3.3,19.38,3.14,16.85h4.19c.22.67,1.24,2.75,5.28,2.75h.16s14.47,0,14.47,0h.16c4.04,0,5.06-2.08,5.28-2.75h4.19M19.15,36.18c10.59,0,12.39-13.34,12.4-13.47,0-.07-.01-.14-.06-.2-.05-.05-.12-.08-.19-.08H8.69c-.14,0-.25.11-.25.25,0,.28.03,6.95,3.91,10.84,1.77,1.77,4.05,2.67,6.8,2.67M37.13,16.6h0,0ZM37.13,16.6h-4.64s-.53,2.75-5.09,2.75c-.05,0-.11,0-.16,0h-14.47c-.05,0-.11,0-.16,0-4.56,0-5.09-2.75-5.09-2.75H2.87s.88,23.21,17.13,23.21,17.13-23.21,17.13-23.21h0ZM19.15,35.93c-10.49,0-10.46-13.25-10.46-13.25h22.62s-1.66,13.25-12.16,13.25h0Z"/>
  </g>
  <g>
    <path class="cls-1" d="M10.21,11.14c-1.09,0-2.29-.45-2.52-1.46-.03-.06-.04-.1-.04-.15,0,0,0-7.45,0-7.45.04-1.21,1.35-1.76,2.56-1.76,1.09,0,2.29.45,2.52,1.46.03.06.04.1.04.14,0,0,0,7.45,0,7.45-.04,1.21-1.35,1.76-2.56,1.76h0Z"/>
    <path class="cls-1" d="M10.2.44c1.04,0,2.19.42,2.4,1.37,0,.02.01.04.02.06,0,.02.01.03.01.06v.1s0,.06,0,.06v.74s0,6.54,0,6.54c-.03,1.13-1.28,1.65-2.43,1.65-1.04,0-2.19-.42-2.4-1.37,0-.02-.01-.04-.02-.06,0-.01-.01-.03-.01-.06v-.1s0-.06,0-.06v-.74s0-6.54,0-6.54c.03-1.13,1.28-1.65,2.43-1.65M10.2.19c-1.32,0-2.65.63-2.68,1.89v6.55s0,.74,0,.74h0s0,.04,0,.06v.1c0,.07.02.12.04.17.24,1.04,1.44,1.56,2.64,1.56,1.32,0,2.65-.63,2.68-1.89V2.83s0-.74,0-.74h0s0-.04,0-.06v-.1c0-.07-.02-.12-.04-.17-.24-1.04-1.44-1.56-2.64-1.56h0Z"/>
  </g>
  <g>
    <path class="cls-1" d="M29.94,11.16c-1.09,0-2.29-.45-2.52-1.46-.03-.06-.04-.1-.04-.14,0,0,0-7.45,0-7.45.04-1.21,1.35-1.76,2.56-1.76,1.09,0,2.29.45,2.52,1.46.03.06.04.1.04.14,0,0,0,7.45,0,7.45-.04,1.21-1.35,1.76-2.56,1.76h0Z"/>
    <path class="cls-1" d="M29.93.47c1.04,0,2.18.42,2.4,1.37,0,.02.01.04.02.06,0,.01.01.03.01.06v.1s0,.06,0,.06v.75s0,6.54,0,6.54c-.03,1.13-1.28,1.65-2.43,1.65-1.04,0-2.18-.42-2.4-1.37,0-.02-.01-.04-.02-.06,0-.01-.01-.03-.01-.06v-.1s0-.06,0-.06v-.74s0-6.54,0-6.54c.03-1.13,1.28-1.65,2.43-1.65M29.93.22c-1.32,0-2.65.63-2.68,1.89v6.55s0,.74,0,.74h0s0,.04,0,.06v.1c0,.07.02.13.04.17.24,1.04,1.44,1.56,2.64,1.56,1.32,0,2.65-.63,2.68-1.89V2.85s0-.74,0-.74h0s0-.04,0-.06v-.1c0-.07-.02-.12-.04-.17-.24-1.04-1.44-1.56-2.64-1.56h0Z"/>
  </g>
</svg>