<?xml version="1.0" encoding="UTF-8"?>
<svg id="Capa_1" data-name="Capa 1" xmlns="http://www.w3.org/2000/svg" viewBox="0 0 120 40">
  <defs>
    <style>
      .cls-1 {
        fill: #fff;
        font-family: SegoeUI-Semilight, 'Segoe UI';
        font-size: 48px;
        font-weight: 300;
      }

      .cls-2 {
        fill: #00a7a3;
      }
    </style>
  </defs>
  <text class="cls-1" transform="translate(119.86 19.67)"><tspan x="0" y="0">”“</tspan></text>
  <g>
    <path d="M64.33,11.54c.34.1.47.1.59.1.07,0,.14.14.13.2-.03.48.04,1.11.05,1.34.01.21-.04.31-.12.31-.05,0-.12-.1-.17-.28-.2-.59-.42-.83-.8-1.09-.35-.28-1.04-.55-1.89-.55-2.17,0-3.39,1.56-3.39,3.69,0,1,.18,1.68.45,2.24.8,1.66,2.27,2.34,3.35,2.34.56,0,1.05-.08,1.48-.3.37-.2.68-.51.9-.96.16-.34.2-.42.3-.42.07,0,.09.16.08.25l-.07.89c-.01.12-.18.29-.34.37-.6.29-1.36.52-2.62.52-1.34,0-2.86-.46-3.81-1.57-.69-.8-1.02-1.89-1.02-2.86,0-1.36.54-2.66,1.86-3.58,1.06-.73,2.2-.93,3.13-.93.88,0,1.53.18,1.9.26Z"/>
    <path d="M69.44,15.15c.35.41.33.94.33,1.39v.17c0,.42-.05,1.07-.04,1.91,0,.65.28.83.52.83.13,0,.37-.08.5-.16.03-.01.1.01.1.09,0,.03-.01.09-.05.16-.2.34-.52.59-1.09.59-.41,0-.71-.22-.85-.66-.01-.03-.09-.04-.1-.03-.63.46-1.13.68-1.53.68-.5,0-1.04-.37-1.04-1.17,0-.64.51-.8.68-.89.14-.05.71-.22,1.78-.6.1-.04.2-.1.21-.26.01-.14.03-.83.03-1.1,0-.22-.26-.9-.97-.9-.3,0-.71.01-.71.79,0,.01-.08.1-.13.13-.05.04-.68.37-.73.37-.08,0-.13-.08-.13-.12,0-.58.86-1.15,1.32-1.4.25-.14.62-.31.88-.31.35,0,.75.17,1.02.5ZM68.65,19.25c.17-.17.18-1,.18-1.45,0-.05-.04-.09-.07-.09-.94.22-1.61.51-1.61,1.03,0,.45.29.77.76.77.3,0,.55-.07.73-.26ZM69.41,12.21c-.3.5-.92,1.4-1.3,1.89-.07.08-.14.13-.18.13-.07,0-.05-.13-.01-.26.14-.45.54-1.34.79-1.85.04-.07.09-.13.16-.17.1-.05.41-.14.55-.14.13,0,.18.1,0,.41Z"/>
    <path d="M74.42,14.89s.1.28.1.51c0,.04-.08.17-.16.17-.16,0-1.39-.07-1.73-.07-.03,0-.05.07-.05.12v2.58c.01.55.12.9.33,1.09.16.16.55.24.69.24.24,0,.45-.07.64-.17.07-.04.12-.08.14-.08s.07.07.07.08c0,.2-.24.37-.37.47-.24.17-.69.3-1.06.3-.47,0-.86-.2-1.04-.38-.33-.33-.38-.75-.38-1.34.03-1.02.07-2.1.07-2.7,0-.1-.03-.17-.08-.18l-.35-.1c-.05-.01-.14-.09-.14-.12,0-.1.16-.21.29-.29.34-.22.72-.56.94-.79.07-.07.14-.13.21-.13.04,0,.07.09.07.18,0,.13-.01.46-.01.52,0,.01.03.09.07.09.1,0,1.76-.01,1.76-.01Z"/>
    <path d="M79.18,16.2c0,.14-.17.25-.39.24-.94-.04-2.25-.05-2.69,0-.07.01-.13.1-.16.18-.04.08-.04.31-.04.54,0,.98.81,2.23,1.99,2.23.75,0,1.04-.31,1.3-.68.08-.09.17-.1.17.07,0,.12-.1.28-.18.37-.51.65-1.24,1-1.89,1-1.44,0-2.24-1.23-2.24-2.58,0-.89.3-1.95,1.36-2.58.26-.17.64-.29,1.15-.29.96,0,1.61.64,1.61,1.52ZM76.03,16.1s.03.09.07.09c.56,0,1.39-.03,1.7-.03.33-.04.47-.12.46-.42-.01-.47-.52-.84-.84-.84-.55,0-1.14.46-1.39,1.19Z"/>
    <path d="M83.93,14.81s.08-.03.08-.07c0-.34-.03-2.24-.04-2.69-.01-.37-.01-.5-.46-.85-.07-.07-.08-.1-.08-.13,0-.07.09-.12.18-.14.45-.09.84-.22,1-.28.12-.05.2-.07.28-.07.04,0,.08.07.08.29-.04,1.32-.05,1.94-.05,5.11,0,.9,0,1.3.01,3.04,0,.48.09.54.22.54.1,0,.45-.03.73-.12.04,0,.09.04.09.09s-.05.28-.13.29c-.21.04-1,.18-1.28.25-.17.04-.43.1-.48.1-.08,0-.13-.12-.13-.14.01-.1.01-.33.01-.51,0-.05-.05-.13-.09-.09-.52.43-1.17.64-1.62.64-1.4,0-2.24-1.19-2.24-2.48s.6-2.03,1.55-2.52c.51-.26,1.05-.38,1.6-.38.26,0,.58.03.79.1ZM81.82,15.28c-.5.33-.81,1.06-.81,1.87,0,1.21.72,2.34,1.93,2.34.22,0,.54-.05.83-.25.07-.05.18-.24.2-.42.01-.34.04-1.68-.01-2.62,0-.05-.08-.38-.17-.5-.37-.43-.79-.64-1.26-.64-.24,0-.48.08-.69.21Z"/>
    <path d="M86.7,15.07c.51-.17.85-.31.97-.39.09-.05.17-.09.21-.09.05,0,.08.1.08.16,0,.42-.05.89-.04,1.01,0,.01.03.05.05.03.38-.42.98-1.11,1.6-1.11.34,0,.56.25.56.43,0,.42-.39.68-.52.68-.07,0-.2-.07-.31-.13-.2-.13-.37-.16-.52-.16-.2,0-.47.2-.62.42-.14.2-.18.46-.18.48-.04.58-.01,2.17.07,2.71.05.33.21.5.83.62.21.04.29.1.29.18,0,.07-.13.12-.33.12-.46,0-1.01-.08-1.47-.08-.29,0-.69.04-.9.04-.17,0-.26-.07-.26-.13s.07-.13.29-.18c.5-.13.58-.41.58-1.05,0-1.55,0-2.15-.04-2.58-.03-.3.01-.43-.45-.67-.05-.03-.1-.05-.1-.09,0-.07.1-.16.24-.21Z"/>
    <path d="M93.8,15.15c.35.41.33.94.33,1.39v.17c0,.42-.05,1.07-.04,1.91,0,.65.28.83.52.83.13,0,.37-.08.5-.16.03-.01.1.01.1.09,0,.03-.01.09-.05.16-.2.34-.52.59-1.09.59-.41,0-.71-.22-.85-.66-.01-.03-.09-.04-.1-.03-.63.46-1.13.68-1.53.68-.5,0-1.04-.37-1.04-1.17,0-.64.51-.8.68-.89.14-.05.71-.22,1.78-.6.1-.04.2-.1.21-.26.01-.14.03-.83.03-1.1,0-.22-.26-.9-.97-.9-.3,0-.71.01-.71.79,0,.01-.08.1-.13.13-.05.04-.68.37-.73.37-.08,0-.13-.08-.13-.12,0-.58.86-1.15,1.32-1.4.25-.14.62-.31.88-.31.35,0,.75.17,1.02.5ZM93.02,19.25c.17-.17.18-1,.18-1.45,0-.05-.04-.09-.07-.09-.94.22-1.61.51-1.61,1.03,0,.45.29.77.76.77.3,0,.55-.07.73-.26Z"/>
    <path d="M57.05,24.96c.07,0,.67.04,1.22.04.59,0,1.05-.03,1.19-.03.16,0,.3.03.3.1,0,.09-.04.13-.34.21-.46.12-.48.3-.38.56.26.65,2.44,5.53,2.62,5.79.05.08.1.04.12.01l1.02-2.21s.03-.12.01-.18c-.04-.17-1.18-2.62-1.34-2.92-.38-.81-.62-.98-1.13-1.1-.12-.03-.24-.09-.24-.17,0-.07.09-.09.25-.09.17,0,.84.03,1.26.03.67,0,1.19-.03,1.27-.03.14,0,.22.03.22.12s-.07.1-.3.17c-.51.14-.54.25-.34.69.12.29.46,1.04.94,2.16.01.04.07.01.09-.03.14-.18.62-1.27.84-1.82.3-.77.09-.9-.46-1.05-.13-.03-.22-.08-.22-.14,0-.05.08-.1.28-.1.22,0,.56.03,1,.03.38,0,.83-.03,1.03-.03.1,0,.22.03.22.08,0,.07-.04.12-.28.2-.5.14-.68.29-1.05.97-.12.21-1.06,2.12-1.14,2.34-.01.07,0,.17.01.21.22.6,1.05,2.42,1.36,2.95.03.04.07.08.1,0,.14-.33,1.59-3.51,2.27-5.4.24-.66.16-.94-.47-1.09-.14-.03-.28-.05-.28-.14,0-.08.1-.12.28-.12.29,0,.77.03,1.01.03.39,0,.8-.03,1.18-.03.16,0,.26.03.26.09,0,.09-.03.12-.26.18-.55.14-.75.33-1.13,1.02-.33.58-.89,1.86-1.7,3.84-.88,2.06-1.02,2.38-1.38,3.29-.09.2-.16.26-.26.26-.07,0-.13-.07-.18-.22-.37-1.18-.96-2.4-1.43-3.52-.04-.08-.05-.14-.09-.03-.35.88-1.13,2.28-1.52,3.5-.03.1-.13.28-.24.28-.08,0-.13-.12-.18-.22-.08-.18-.29-.84-.81-2.06-.48-1.21-1.68-3.86-2.21-5.02-.41-.84-.62-1-1.13-1.11-.09-.03-.22-.1-.22-.18,0-.07.1-.1.34-.1Z"/>
    <path d="M69.67,28.63c.46-.18,1.09-.51,1.18-.51.05,0,.09.09.09.16-.03.3-.04,1.41-.04,2.36,0,1.31,0,1.72.03,2.06.03.31.16.38.59.48.2.04.26.09.26.14,0,.1-.1.14-.3.14-.38,0-.66-.04-1.07-.04-.5,0-.67.07-1.01.07-.2,0-.26-.04-.26-.12s.09-.12.26-.16c.34-.08.54-.2.56-.52.04-.28.04-.97.04-2.07,0-.55-.04-.98-.05-1.14-.01-.26-.13-.34-.41-.56-.05-.04-.09-.04-.09-.1s.1-.14.22-.18ZM71.08,26.36c0,.35-.25.56-.54.56-.31,0-.54-.26-.54-.52,0-.3.3-.59.54-.59.3,0,.54.24.54.55Z"/>
    <path d="M75.1,28.21l.28.05c.05.01.14.12.17.26.01.13.04.52.04.62,0,.14-.08.22-.12.22-.05,0-.1-.07-.21-.26-.24-.45-.46-.68-.92-.68-.33,0-.85.3-.85.85,0,.41.14.66.84,1.15.68.5,1.31.93,1.31,1.77,0,.52-.35.97-.8,1.18-.35.17-.71.24-1.03.24-.29,0-.62,0-.88-.09-.16-.05-.3-.14-.38-.28-.14-.22-.2-.54-.2-.8,0-.14.05-.35.16-.35.05,0,.09.12.13.2.2.5.64,1.06,1.21,1.06.31,0,.85-.38.85-.9,0-.43-.16-.63-.51-.92-.17-.13-.51-.41-.79-.6-.43-.34-.76-.8-.76-1.35,0-.51.29-.92.55-1.09.22-.16.67-.35,1.28-.35.29,0,.48.05.63.08Z"/>
    <path d="M80.78,28.44c.05.05.13.18.13.3,0,.14-.14.54-.28.54-.09,0-.26-.16-.35-.24-.34-.3-.72-.6-1.31-.6-.46,0-.93.41-1.17.72-.2.26-.35.77-.35,1.4,0,.92.66,2.33,2.11,2.33.86,0,1.22-.38,1.44-.63.05-.05.1.01.1.05,0,.16-.13.35-.22.45-.45.51-1.15.84-1.95.84s-1.34-.33-1.74-.75c-.5-.51-.69-1.24-.69-1.81,0-1.14.47-1.87,1.18-2.34.37-.26,1.07-.58,1.76-.58.6,0,1.15.16,1.35.31Z"/>
    <path d="M86.02,28.42c.45.34.6.83.64,1.38.04.43.07,1.22.07,2.46,0,.69,0,.83.52.94.22.05.28.08.28.17,0,.07-.07.1-.31.1-.3,0-.65-.05-1.01-.05-.42,0-.64.04-.88.04-.17,0-.29-.03-.29-.12,0-.05.07-.09.22-.13.35-.1.48-.17.48-.79v-2.16c0-.39-.1-.84-.18-.98-.17-.37-.5-.55-1.03-.56-.59-.01-1.02.26-1.22.55-.01.03-.07.22-.07.33-.03.81-.04,2.27-.01,2.87.03.54.05.63.51.73.17.04.26.07.26.13,0,.09-.08.14-.31.14-.34,0-.63-.05-1.01-.05s-.72.05-.98.05c-.13,0-.21-.04-.21-.13,0-.07.09-.1.34-.16.31-.08.38-.29.41-.86.03-.54.08-1.39.08-2.78,0-2.59.01-4.32-.01-4.59,0-.12-.04-.2-.35-.39-.14-.09-.16-.13-.16-.18s.08-.09.2-.13c.18-.04.62-.1.86-.14.16-.03.26-.04.34-.04s.08.17.08.35c-.04,2.17-.05,1.95-.05,4.52,0,.03.04.05.05.03.56-.48,1.14-.84,1.79-.84.37,0,.8.14.96.29Z"/>
    <path d="M88.48,28.48c.28-.07.62-.25.86-.37.09-.05.14-.07.2-.07s.07.09.07.18c0,.22-.01.59-.01.64,0,.01,0,.1.05.07.41-.33,1.14-.79,1.83-.79.54,0,.96.25,1.14.48.34.41.39.79.42,1.82l.04,2.03c.01.43.1.59.48.68.16.05.24.09.24.18,0,.1-.16.12-.34.12-.17,0-.63-.05-.97-.05-.3,0-.59.04-.85.04-.2,0-.29-.07-.29-.14,0-.09.16-.14.35-.2.34-.09.38-.2.39-1.11l.03-1.18c.01-1.09-.07-1.41-.26-1.69-.2-.25-.58-.45-.97-.45-.55,0-.97.26-1.19.5-.05.05-.08.33-.08.34,0,.85-.01,1.82.01,2.62.01.72.07.92.54,1.02.18.04.25.08.25.16s-.08.13-.3.13c-.39,0-.71-.04-1.01-.04-.33,0-.56.04-.86.04-.22,0-.31-.05-.31-.13s.07-.13.24-.17c.37-.08.46-.25.47-.52.01-.24.09-1.69.09-2.86,0-.6-.01-.79-.41-1.01-.07-.04-.1-.1-.1-.13,0-.1.1-.12.26-.16ZM89.49,27.07c-.04.05-.1.09-.16.09s-.07-.12,0-.25c.01-.03.3-.51.76-.79.05-.03.14-.05.2-.04.14.04.9.17,1.22.17s.52-.16.73-.39c.04-.04.08-.04.09-.03.04,0,.07.12-.04.26-.12.2-.43.55-.77.73-.07.04-.16.07-.18.07-.2,0-.86-.18-1.32-.18-.12,0-.39.18-.52.35Z"/>
    <path d="M98.58,29.67c0,.14-.17.25-.39.24-.94-.04-2.25-.05-2.69,0-.07.01-.13.1-.16.18-.04.08-.04.31-.04.54,0,.98.81,2.23,1.99,2.23.75,0,1.04-.31,1.3-.68.08-.09.17-.1.17.07,0,.12-.1.28-.18.37-.51.65-1.24,1-1.89,1-1.44,0-2.24-1.23-2.24-2.58,0-.89.3-1.95,1.36-2.58.26-.17.64-.29,1.15-.29.96,0,1.61.64,1.61,1.52ZM95.43,29.57s.03.09.07.09c.56,0,1.39-.03,1.7-.03.33-.04.47-.12.46-.42-.01-.47-.52-.84-.84-.84-.55,0-1.14.46-1.39,1.19Z"/>
    <path d="M99.26,28.26c.24,0,.58.05,1.06.05.31,0,.62-.04.9-.04.17,0,.22.05.22.12,0,.09-.25.17-.35.2-.26.07-.29.26-.2.54.21.62.79,2,1.14,2.79.03.05.09,0,.1-.01.09-.16.97-2.31,1.15-2.79.12-.31.04-.46-.28-.56-.16-.05-.22-.12-.22-.16,0-.07.08-.12.21-.12.26,0,.35.04.55.04.34,0,.77-.05.93-.05.12,0,.21.01.21.09,0,.05-.03.1-.22.17-.38.13-.51.22-.8.8-.17.34-.71,1.59-1,2.23-.3.68-.58,1.41-.79,1.94-.04.12-.1.14-.14.14-.09,0-.13-.13-.18-.3-.08-.25-.21-.6-.35-.96-.22-.58-.89-2.24-1.38-3.29-.14-.35-.28-.45-.62-.56-.16-.05-.2-.1-.2-.16,0-.07.07-.1.24-.1Z"/>
    <path d="M107.5,28.21l.28.05c.05.01.14.12.17.26.01.13.04.52.04.62,0,.14-.08.22-.12.22-.05,0-.1-.07-.21-.26-.24-.45-.46-.68-.92-.68-.33,0-.85.3-.85.85,0,.41.14.66.84,1.15.68.5,1.31.93,1.31,1.77,0,.52-.35.97-.8,1.18-.35.17-.71.24-1.03.24-.29,0-.62,0-.88-.09-.16-.05-.3-.14-.38-.28-.14-.22-.2-.54-.2-.8,0-.14.05-.35.16-.35.05,0,.09.12.13.2.2.5.64,1.06,1.21,1.06.31,0,.85-.38.85-.9,0-.43-.16-.63-.51-.92-.17-.13-.51-.41-.79-.6-.43-.34-.76-.8-.76-1.35,0-.51.29-.92.55-1.09.22-.16.67-.35,1.28-.35.29,0,.48.05.63.08Z"/>
    <path d="M112.74,28.31c.25,0,.86-.07,1.3-.1.18,0,.28.03.28.12,0,.07-.13.16-.29.18-.63.12-.92.25-1.61.85-.28.25-.69.62-.97.9-.01.01-.04.08-.01.1.58.79,1.17,1.49,1.76,2.03.71.63.93.71,1.36.79.21.04.24.09.24.16,0,.08-.09.12-.31.12-.45,0-1.22-.04-1.95-.04h-.38c-.13.01-.24-.01-.24-.08,0-.09.07-.12.26-.17.25-.07.31-.18.16-.34-.43-.54-1.23-1.4-1.64-1.85-.13-.13-.25-.2-.26-.2-.03,0-.07.03-.07.1,0,.8.01,1.21.04,1.65.01.26.14.55.52.63.21.05.26.09.26.17s-.09.12-.33.12c-.35,0-.51-.04-.76-.04-.28,0-1.13.09-1.27.1-.16.01-.28-.04-.28-.12,0-.05.12-.12.29-.17.41-.13.5-.24.54-.77.03-.28.09-1.06.09-3.43,0-2.07-.04-3.18-.05-3.52,0-.34-.05-.43-.41-.72-.05-.05-.09-.1-.09-.14,0-.08.14-.14.24-.17.39-.1.83-.28,1-.34.09-.04.16-.07.21-.07.03,0,.07.07.07.26,0,.56-.05,2.37-.07,4.93v1.23s.03.1.07.1c.1,0,.3-.07.48-.22.41-.34,1.04-1,1.19-1.21.29-.38.28-.48-.25-.59-.12-.03-.21-.08-.21-.14,0-.1.14-.12.24-.12h.86Z"/>
    <path d="M114.63,28.27c.25,0,.72.04.98.04.34,0,.83-.04,1.02-.04.17,0,.24.04.24.1,0,.04-.09.1-.3.16-.35.09-.43.24-.21.89.08.2.84,2.33,1.02,2.67.01.04.05.07.08,0,.47-1.04.92-2.15,1.21-2.9.13-.35-.01-.56-.42-.66-.17-.04-.26-.08-.26-.17,0-.07.09-.1.26-.1.18,0,.51.04.73.04.18,0,.6-.04.8-.04.13,0,.22.04.22.13,0,.05-.08.07-.24.13-.3.12-.45.25-.63.58-.28.55-1.44,3.31-1.85,4.05-.05.09-.2.42-.39.89-.29.62-.59,1.44-1.04,2.4-.12.28-.39.35-.55.35-.24,0-.56-.16-.56-.56,0-.33.2-.56.55-.56.05,0,.25.05.31.05s.14-.1.33-.39c.18-.3.67-1.47.8-1.86.04-.12.03-.26.01-.31-.04-.12-.14-.38-.3-.88-.17-.52-.72-1.85-1.13-2.86-.2-.54-.33-.81-.71-.89-.17-.04-.26-.09-.26-.17,0-.07.12-.09.28-.09Z"/>
  </g>
  <path class="cls-2" d="M29.64,3.86h9.79l-3.73,14.69c-.32,1.32-.49,1.99-.51,2.01-.61,2.41-.91,4.41-.91,5.99,0,.95.33,1.76.99,2.43.66.67,1.38,1.01,2.16,1.01,2.78,0,5.42-2.17,7.93-6.51,2.51-4.34,3.76-7.81,3.76-10.42,0-1.19-.43-1.79-1.28-1.79-1.39,0-2.39-.09-3.02-.26-.62-.17-1.19-.65-1.7-1.43-.51-.78-.77-1.58-.77-2.41,0-.97.41-1.88,1.22-2.72.82-.84,1.88-1.26,3.2-1.26,1.71,0,3.02.63,3.95,1.9.93,1.27,1.39,2.73,1.39,4.39,0,5.02-1.73,10.29-5.19,15.83-3.46,5.53-7.77,8.3-12.94,8.3-2.46,0-4.4-.86-5.81-2.58-1.41-1.72-2.12-3.66-2.12-5.83,0-1.51.15-2.91.44-4.2l-.15-.15c-2.58,4.9-5.03,8.25-7.35,10.05-2.32,1.8-4.91,2.7-7.78,2.7-2.17,0-3.83-.58-4.99-1.74-1.16-1.16-1.74-2.41-1.74-3.75,0-1.44.33-3.44.99-5.99l3.07-12.06c.24-1,.37-1.72.37-2.16,0-.71-.33-1.06-.99-1.06-1.51,0-3.48,2.52-5.92,7.57l-2.01-.88C3.05,6.65,7.11,3.2,12.21,3.2c2,0,3.58.49,4.75,1.48s1.75,2.11,1.75,3.38c0,1-.32,2.75-.95,5.26l-3.22,12.32c-.37,1.54-.55,2.44-.55,2.7,0,.9.55,1.35,1.64,1.35,2.1,0,4.56-2.45,7.38-7.36,2.83-4.91,5.03-11.07,6.62-18.48Z"/>
</svg>